<?xml version="1.0" standalone="no"?><svg xmlns="http://www.w3.org/2000/svg" viewBox="0 0 1440 320"><path fill="#474747" fill-opacity="1" d="M0,96L0,32L49.7,32L49.7,192L99.3,192L99.3,288L149,288L149,288L198.6,288L198.6,224L248.3,224L248.3,128L297.9,128L297.9,64L347.6,64L347.6,96L397.2,96L397.2,160L446.9,160L446.9,192L496.6,192L496.6,32L546.2,32L546.2,64L595.9,64L595.9,160L645.5,160L645.5,192L695.2,192L695.2,256L744.8,256L744.8,64L794.5,64L794.5,0L844.1,0L844.1,192L893.8,192L893.8,192L943.4,192L943.4,288L993.1,288L993.1,128L1042.8,128L1042.8,64L1092.4,64L1092.4,192L1142.1,192L1142.1,64L1191.7,64L1191.7,160L1241.4,160L1241.4,64L1291,64L1291,64L1340.7,64L1340.7,96L1390.3,96L1390.3,128L1440,128L1440,320L1390.3,320L1390.3,320L1340.7,320L1340.7,320L1291,320L1291,320L1241.4,320L1241.4,320L1191.7,320L1191.7,320L1142.1,320L1142.1,320L1092.4,320L1092.4,320L1042.8,320L1042.8,320L993.1,320L993.1,320L943.4,320L943.4,320L893.8,320L893.8,320L844.1,320L844.1,320L794.5,320L794.5,320L744.8,320L744.8,320L695.2,320L695.2,320L645.5,320L645.5,320L595.9,320L595.9,320L546.2,320L546.2,320L496.6,320L496.6,320L446.9,320L446.9,320L397.2,320L397.2,320L347.6,320L347.6,320L297.9,320L297.9,320L248.3,320L248.3,320L198.6,320L198.6,320L149,320L149,320L99.3,320L99.3,320L49.7,320L49.7,320L0,320L0,320Z"></path></svg>